<?xml version="1.0" encoding="UTF-8" standalone="no"?>
<svg width="32px" height="32px" viewBox="0 0 32 32" version="1.1" xmlns="http://www.w3.org/2000/svg" xmlns:xlink="http://www.w3.org/1999/xlink" xmlns:sketch="http://www.bohemiancoding.com/sketch/ns">
    <!-- Generator: Sketch 3.4.4 (17249) - http://www.bohemiancoding.com/sketch -->
    <title>btn_shoppingbag</title>
    <desc>Created with Sketch.</desc>
    <defs></defs>
    <g id="首页" stroke="none" stroke-width="1" fill="none" fill-rule="evenodd" sketch:type="MSPage">
        <g id="购物袋-2" sketch:type="MSLayerGroup" fill="#3B3B3B">
            <g id="购物袋" sketch:type="MSShapeGroup">
                <path d="M4.57706699,13.2372443 L4.57706699,13.2372443 L2.38625368,29.3032085 C2.32647121,29.7416134 2.55226078,30 2.99610022,30 L29.0038998,30 C29.4507058,30 29.6738578,29.744026 29.6137463,29.3032085 L27.422933,13.2372443 C27.3347073,12.5902558 26.6555827,12 25.9920699,12 L6.00793008,12 C5.34313617,12 4.66536671,12.589713 4.57706699,13.2372443 L4.57706699,13.2372443 Z M2.59540665,12.9670179 C2.81885739,11.3283792 4.34312337,10 6.00793008,10 L25.9920699,10 C27.6533038,10 29.1809074,11.3266545 29.4045933,12.9670179 L31.5954067,29.0329821 C31.8188574,30.6716208 30.6657405,32 29.0038998,32 L2.99610022,32 C1.34139976,32 0.180907438,30.6733455 0.404593349,29.0329821 L2.59540665,12.9670179 L2.59540665,12.9670179 Z" id="Shape"></path>
                <circle id="Oval-27" cx="9.5" cy="15.5" r="1.5"></circle>
                <circle id="Oval-27" cx="22.5" cy="15.5" r="1.5"></circle>
                <path d="M22.9995345,7 C22.9998445,6.97779062 23,6.95556809 23,6.93333333 C23,2.91014913 19.8659932,0 16.4666667,0 C12.1340068,0 9,2.91014913 9,6.93333333 C9,6.95556809 9.00015551,6.97779062 9.00046584,7 L11.015221,7 C11.216345,4.02958623 13.3923727,2 16.4545455,2 C18.6511025,2 20.7857341,4.02958623 20.9848784,7 L22.9995345,7 L22.9995345,7 Z M9,7 L11,7 L11,9 L9,9 L9,7 L9,7 Z M21,7 L23,7 L23,9 L21,9 L21,7 L21,7 Z" id="Oval-2"></path>
            </g>
        </g>
    </g>
</svg>