<?xml version="1.0" encoding="UTF-8" standalone="no"?>
<svg width="35px" height="17px" viewBox="0 0 35 17" version="1.1" xmlns="http://www.w3.org/2000/svg" xmlns:xlink="http://www.w3.org/1999/xlink" xmlns:sketch="http://www.bohemiancoding.com/sketch/ns">
    <!-- Generator: Sketch 3.4.4 (17249) - http://www.bohemiancoding.com/sketch -->
    <title>menu_pinpai</title>
    <desc>Created with Sketch.</desc>
    <defs></defs>
    <g id="单品详情" stroke="none" stroke-width="1" fill="none" fill-rule="evenodd" sketch:type="MSPage">
        <g id="Group" sketch:type="MSLayerGroup" transform="translate(-565.154000, 0.846000)" fill="#3B3B3B">
            <path d="M567.096,6.846 L567.096,0.258 L579.066,0.258 L579.066,6.846 L567.096,6.846 Z M573.648,15.846 L573.648,8.43 L580.632,8.43 L580.632,15.846 L573.648,15.846 Z M565.53,15.846 L565.53,8.43 L572.514,8.43 L572.514,15.846 L565.53,15.846 Z M577.392,1.446 L568.77,1.446 L568.77,5.676 L577.392,5.676 L577.392,1.446 Z M578.958,9.618 L575.322,9.618 L575.322,14.676 L578.958,14.676 L578.958,9.618 Z M570.84,9.618 L567.204,9.618 L567.204,14.676 L570.84,14.676 L570.84,9.618 Z M595.014,8.808 L591.936,11.31 L589.542,11.31 L592.62,8.808 L589.83,8.808 L589.83,1.356 L592.404,1.356 L593.088,0.042 L594.96,0.042 L594.294,1.356 L598.812,1.356 L598.812,8.808 L595.014,8.808 Z M596.526,13.056 L596.526,15.864 L594.924,15.864 L594.924,13.056 L589.29,13.056 L589.29,11.922 L594.924,11.922 L594.924,9.672 L596.526,9.672 L596.526,11.922 L599.154,11.922 L599.154,13.056 L596.526,13.056 Z M585.366,5.946 L585.366,8.196 L588.714,8.196 L588.714,15.864 L587.13,15.864 L587.13,9.366 L585.33,9.366 L585.33,13.326 L584.556,15.864 L582.882,15.864 L583.764,13.146 L583.764,0.348 L585.366,0.348 L585.366,4.776 L587.022,4.776 L587.022,0.06 L588.624,0.06 L588.624,4.776 L589.236,4.776 L589.236,5.946 L585.366,5.946 Z M597.246,2.526 L595.104,2.526 L595.104,4.506 L597.246,4.506 L597.246,2.526 Z M597.246,5.64 L595.104,5.64 L595.104,7.656 L597.246,7.656 L597.246,5.64 Z M593.52,2.526 L591.396,2.526 L591.396,4.506 L593.52,4.506 L593.52,2.526 Z M593.52,5.64 L591.396,5.64 L591.396,7.656 L593.52,7.656 L593.52,5.64 Z" id="品牌----copy" sketch:type="MSShapeGroup"></path>
        </g>
    </g>
</svg>