<?xml version="1.0" encoding="UTF-8" standalone="no"?>
<svg width="35px" height="17px" viewBox="0 0 35 17" version="1.1" xmlns="http://www.w3.org/2000/svg" xmlns:xlink="http://www.w3.org/1999/xlink" xmlns:sketch="http://www.bohemiancoding.com/sketch/ns">
    <!-- Generator: Sketch 3.4.4 (17249) - http://www.bohemiancoding.com/sketch -->
    <title>menu_nanz</title>
    <desc>Created with Sketch.</desc>
    <defs></defs>
    <g id="单品详情" stroke="none" stroke-width="1" fill="none" fill-rule="evenodd" sketch:type="MSPage">
        <g id="Group" sketch:type="MSLayerGroup" transform="translate(-212.154000, 0.846000)" fill="#3B3B3B">
            <path d="M219.884,15.846 L219.29,14.676 L226.832,14.676 L226.832,10.446 L219.488,10.446 L214.79,15.846 L212.81,15.846 L217.526,10.446 L213.296,10.446 L213.296,9.276 L218.552,9.276 L219.938,7.674 L213.944,7.674 L213.944,0.24 L228.182,0.24 L228.182,7.674 L221.9,7.674 L220.514,9.276 L228.506,9.276 L228.506,15.846 L219.884,15.846 Z M226.508,1.608 L221.9,1.608 L221.9,3.444 L226.508,3.444 L226.508,1.608 Z M226.508,4.614 L221.9,4.614 L221.9,6.504 L226.508,6.504 L226.508,4.614 Z M220.226,1.608 L215.618,1.608 L215.618,3.444 L220.226,3.444 L220.226,1.608 Z M220.226,4.614 L215.618,4.614 L215.618,6.504 L220.226,6.504 L220.226,4.614 Z M243.212,3.228 L243.212,6.252 L246.668,6.252 L246.668,7.44 L238.1,7.44 L238.1,6.252 L241.556,6.252 L241.556,3.228 L237.884,3.228 L237.884,2.04 L241.556,2.04 L241.556,0.06 L243.212,0.06 L243.212,2.04 L246.884,2.04 L246.884,3.228 L243.212,3.228 Z M235.508,8.106 L235.508,0.06 L237.164,0.06 L237.164,8.106 L235.508,8.106 Z M232.898,3.588 L231.242,0.528 L233.078,0.528 L234.734,3.588 L232.898,3.588 Z M244.436,15.828 L237.074,11.454 L239.81,11.454 L242.348,12.966 L244.4,11.13 L246.506,11.13 L243.698,13.758 L247.172,15.828 L244.436,15.828 Z M238.226,10.302 L235.058,12.696 L235.058,14.658 L240.206,14.658 L239.594,15.846 L233.42,15.846 L233.42,13.848 L231.008,13.848 L235.742,10.302 L231.278,10.302 L231.278,9.132 L238.244,9.132 L237.704,8.034 L239.576,8.034 L240.134,9.132 L246.866,9.132 L246.866,10.302 L238.226,10.302 Z M232.718,7.89 L230.9,7.89 L232.916,4.326 L234.734,4.326 L232.718,7.89 Z" id="男装----copy" sketch:type="MSShapeGroup"></path>
        </g>
    </g>
</svg>