<?xml version="1.0" encoding="UTF-8" standalone="no"?>
<svg width="35px" height="17px" viewBox="0 0 35 17" version="1.1" xmlns="http://www.w3.org/2000/svg" xmlns:xlink="http://www.w3.org/1999/xlink" xmlns:sketch="http://www.bohemiancoding.com/sketch/ns">
    <!-- Generator: Sketch 3.4.4 (17249) - http://www.bohemiancoding.com/sketch -->
    <title>menu_sh</title>
    <desc>Created with Sketch.</desc>
    <defs></defs>
    <g id="单品详情" stroke="none" stroke-width="1" fill="none" fill-rule="evenodd" sketch:type="MSPage">
        <g id="Group" sketch:type="MSLayerGroup" transform="translate(-476.154000, 0.846000)" fill="#3B3B3B">
            <path d="M477.062,15.846 L477.062,14.676 L484.316,14.676 L484.316,9.78 L477.782,9.78 L477.782,8.61 L484.316,8.61 L484.316,4.488 L480.032,4.488 L478.718,7.296 L476.756,7.296 L479.798,0.798 L481.778,0.798 L480.59,3.3 L484.316,3.3 L484.316,0.078 L485.972,0.078 L485.972,3.3 L492.596,3.3 L492.596,4.488 L485.972,4.488 L485.972,8.61 L492.146,8.61 L492.146,9.78 L485.972,9.78 L485.972,14.676 L493.064,14.676 L493.064,15.846 L477.062,15.846 Z M510.362,2.058 L506.222,2.058 L506.222,4.866 L511.082,4.866 L511.082,6.054 L506.222,6.054 L506.222,8.7 L510.56,8.7 L510.56,15.846 L500.3,15.846 L500.3,8.7 L504.548,8.7 L504.548,6.054 L499.706,6.054 L499.706,4.866 L504.548,4.866 L504.548,2.058 L500.21,2.058 L500.21,0.87 L509.246,0.87 L509.696,0.042 L511.442,0.042 L510.362,2.058 Z M497.834,3.966 L494.9,0.06 L496.808,0.06 L499.742,3.966 L497.834,3.966 Z M497.87,8.754 L495.098,4.56 L497.006,4.56 L499.778,8.754 L497.87,8.754 Z M496.772,15.864 L494.936,15.864 L497.618,9.456 L499.454,9.456 L496.772,15.864 Z M508.904,9.87 L501.974,9.87 L501.974,14.676 L508.904,14.676 L508.904,9.87 Z" id="生活----copy" sketch:type="MSShapeGroup"></path>
        </g>
    </g>
</svg>