<?xml version="1.0" encoding="UTF-8" standalone="no"?>
<svg width="35px" height="17px" viewBox="0 0 35 17" version="1.1" xmlns="http://www.w3.org/2000/svg" xmlns:xlink="http://www.w3.org/1999/xlink" xmlns:sketch="http://www.bohemiancoding.com/sketch/ns">
    <!-- Generator: Sketch 3.4.4 (17249) - http://www.bohemiancoding.com/sketch -->
    <title>menu_xl</title>
    <desc>Created with Sketch.</desc>
    <defs></defs>
    <g id="单品详情" stroke="none" stroke-width="1" fill="none" fill-rule="evenodd" sketch:type="MSPage">
        <g id="Group" sketch:type="MSLayerGroup" transform="translate(-300.154000, 0.846000)" fill="#3B3B3B">
            <path d="M308.964,7.422 L308.964,6.234 L312.096,6.234 L312.096,3.588 L309.396,3.588 L309.396,2.4 L312.096,2.4 L312.096,0.06 L313.77,0.06 L313.77,2.4 L316.488,2.4 L316.488,3.588 L313.77,3.588 L313.77,6.234 L317.064,6.234 L317.064,7.422 L308.964,7.422 Z M308.622,15.846 L308.622,14.658 L312.096,14.658 L312.096,11.454 L309.396,11.454 L309.396,10.284 L312.096,10.284 L312.096,8.25 L313.752,8.25 L313.752,10.284 L316.542,10.284 L316.542,11.454 L313.752,11.454 L313.752,14.658 L317.19,14.658 L317.19,15.846 L308.622,15.846 Z M305.778,13.524 L305.778,15.9 L304.104,15.9 L304.104,13.524 L300.99,13.524 L300.99,12.354 L304.104,12.354 L304.104,11.112 L301.368,11.112 L301.368,6.36 L304.104,6.36 L304.104,5.136 L301.98,5.136 L301.98,2.49 L301.116,2.49 L301.116,1.32 L301.98,1.32 L301.98,0.06 L303.636,0.06 L303.636,1.32 L306.228,1.32 L306.228,0.06 L307.884,0.06 L307.884,1.32 L308.766,1.32 L308.766,2.49 L307.884,2.49 L307.884,5.136 L305.778,5.136 L305.778,6.36 L308.55,6.36 L308.55,11.112 L305.778,11.112 L305.778,12.354 L308.964,12.354 L308.964,13.524 L305.778,13.524 Z M306.228,2.49 L303.636,2.49 L303.636,3.966 L306.228,3.966 L306.228,2.49 Z M307.056,7.53 L305.778,7.53 L305.778,9.942 L307.056,9.942 L307.056,7.53 Z M304.104,7.53 L302.844,7.53 L302.844,9.942 L304.104,9.942 L304.104,7.53 Z M331.95,15.864 L330.15,15.144 L328.422,15.864 L325.164,15.864 L328.548,14.496 L326.388,13.632 L329.61,13.632 L330.15,13.848 L332.292,12.984 L332.292,12.822 L327.99,12.822 L327.504,13.254 L325.542,13.254 L327.918,11.076 L326.622,11.076 L326.622,7.332 L325.272,7.332 L327.612,4.398 L329.466,4.398 L328.98,5.028 L334.776,5.028 L334.776,6.054 L328.188,6.054 L327.54,6.882 L334.092,6.882 L334.092,11.076 L329.952,11.076 L329.142,11.796 L333.84,11.796 L333.84,13.596 L331.752,14.478 L335.316,15.864 L331.95,15.864 Z M321.366,3.876 L321.366,12.804 L320.538,15.864 L318.846,15.864 L319.782,12.462 L319.782,0.276 L334.614,0.276 L334.614,3.876 L321.366,3.876 Z M323.49,7.926 L321.618,7.926 L324.084,4.398 L325.956,4.398 L323.49,7.926 Z M324.03,10.95 L324.876,10.95 L324.876,15.864 L323.238,15.864 L323.238,11.652 L321.672,11.652 L324.282,8.016 L326.154,8.016 L324.03,10.95 Z M333.03,1.338 L321.366,1.338 L321.366,2.814 L333.03,2.814 L333.03,1.338 Z M332.544,7.89 L328.188,7.89 L328.188,8.538 L332.544,8.538 L332.544,7.89 Z M332.544,9.42 L328.188,9.42 L328.188,10.05 L332.544,10.05 L332.544,9.42 Z" id="鞋履----copy" sketch:type="MSShapeGroup"></path>
        </g>
    </g>
</svg>