<?xml version="1.0" encoding="UTF-8" standalone="no"?>
<svg width="35px" height="17px" viewBox="0 0 35 17" version="1.1" xmlns="http://www.w3.org/2000/svg" xmlns:xlink="http://www.w3.org/1999/xlink" xmlns:sketch="http://www.bohemiancoding.com/sketch/ns">
    <!-- Generator: Sketch 3.4.4 (17249) - http://www.bohemiancoding.com/sketch -->
    <title>menu_xb</title>
    <desc>Created with Sketch.</desc>
    <defs></defs>
    <g id="单品详情" stroke="none" stroke-width="1" fill="none" fill-rule="evenodd" sketch:type="MSPage">
        <g id="Group" sketch:type="MSLayerGroup" transform="translate(-388.154000, 0.846000)" fill="#3B3B3B">
            <path d="M402.976,2.382 L403.966,4.182 L402.076,4.182 L401.104,2.382 L399.88,2.382 L398.71,4.182 L396.748,4.182 L399.394,0.042 L401.374,0.042 L400.636,1.212 L405.118,1.212 L405.118,2.382 L402.976,2.382 Z M395.2,2.382 L396.19,4.182 L394.3,4.182 L393.328,2.382 L392.014,2.382 L390.844,4.182 L388.882,4.182 L391.528,0.042 L393.508,0.042 L392.77,1.212 L397.126,1.212 L397.126,2.382 L395.2,2.382 Z M397.126,15.846 L397.126,4.776 L404.452,4.776 L404.452,15.846 L397.126,15.846 Z M395.164,15.252 L394.246,8.196 L395.632,8.196 L396.568,15.252 L395.164,15.252 Z M393.598,7.314 L393.598,15.864 L391.942,15.864 L391.942,7.314 L389.044,7.314 L389.044,6.144 L391.942,6.144 L391.942,4.254 L393.598,4.254 L393.598,6.144 L396.496,6.144 L396.496,7.314 L393.598,7.314 Z M390.376,15.252 L388.936,15.252 L389.926,8.196 L391.312,8.196 L390.376,15.252 Z M402.778,5.946 L398.782,5.946 L398.782,8.07 L402.778,8.07 L402.778,5.946 Z M402.778,9.222 L398.782,9.222 L398.782,11.364 L402.778,11.364 L402.778,9.222 Z M402.778,12.516 L398.782,12.516 L398.782,14.676 L402.778,14.676 L402.778,12.516 Z M422.668,15.846 L408.628,15.846 L408.628,6.198 L406.882,6.198 L410.698,0.078 L412.75,0.078 L411.598,1.914 L422.182,1.914 L422.182,12.894 L415.882,12.894 L415.288,11.724 L420.526,11.724 L420.526,3.048 L410.896,3.048 L409.564,5.19 L417.772,5.19 L417.772,10.806 L410.284,10.806 L410.284,14.676 L423.244,14.676 L422.668,15.846 Z M416.116,6.324 L410.284,6.324 L410.284,9.636 L416.116,9.636 L416.116,6.324 Z" id="箱包----copy" sketch:type="MSShapeGroup"></path>
        </g>
    </g>
</svg>