<?xml version="1.0" encoding="UTF-8" standalone="no"?>
<svg width="35px" height="17px" viewBox="0 0 35 17" version="1.1" xmlns="http://www.w3.org/2000/svg" xmlns:xlink="http://www.w3.org/1999/xlink" xmlns:sketch="http://www.bohemiancoding.com/sketch/ns">
    <!-- Generator: Sketch 3.4.4 (17249) - http://www.bohemiancoding.com/sketch -->
    <title>menu_nvz</title>
    <desc>Created with Sketch.</desc>
    <defs></defs>
    <g id="单品详情" stroke="none" stroke-width="1" fill="none" fill-rule="evenodd" sketch:type="MSPage">
        <g id="Group" sketch:type="MSLayerGroup" transform="translate(-124.154000, 0.846000)" fill="#3B3B3B">
            <path d="M137.734,15.846 L133.09,13.29 L128.464,15.846 L124.99,15.846 L131.398,12.372 L127.186,10.05 L127.186,4.506 L125.296,4.506 L125.296,3.336 L127.186,3.336 L127.186,0.06 L128.842,0.06 L128.842,3.336 L137.32,3.336 L137.32,0.06 L138.976,0.06 L138.976,3.336 L140.884,3.336 L140.884,4.506 L138.976,4.506 L138.976,10.05 L134.782,12.354 L141.226,15.846 L137.734,15.846 Z M137.32,4.506 L128.842,4.506 L128.842,9.15 L133.09,11.454 L137.32,9.15 L137.32,4.506 Z M155.212,3.228 L155.212,6.252 L158.668,6.252 L158.668,7.44 L150.1,7.44 L150.1,6.252 L153.556,6.252 L153.556,3.228 L149.884,3.228 L149.884,2.04 L153.556,2.04 L153.556,0.06 L155.212,0.06 L155.212,2.04 L158.884,2.04 L158.884,3.228 L155.212,3.228 Z M147.508,8.106 L147.508,0.06 L149.164,0.06 L149.164,8.106 L147.508,8.106 Z M144.898,3.588 L143.242,0.528 L145.078,0.528 L146.734,3.588 L144.898,3.588 Z M156.436,15.828 L149.074,11.454 L151.81,11.454 L154.348,12.966 L156.4,11.13 L158.506,11.13 L155.698,13.758 L159.172,15.828 L156.436,15.828 Z M150.226,10.302 L147.058,12.696 L147.058,14.658 L152.206,14.658 L151.594,15.846 L145.42,15.846 L145.42,13.848 L143.008,13.848 L147.742,10.302 L143.278,10.302 L143.278,9.132 L150.244,9.132 L149.704,8.034 L151.576,8.034 L152.134,9.132 L158.866,9.132 L158.866,10.302 L150.226,10.302 Z M144.718,7.89 L142.9,7.89 L144.916,4.326 L146.734,4.326 L144.718,7.89 Z" id="女装----copy" sketch:type="MSShapeGroup"></path>
        </g>
    </g>
</svg>