<?xml version="1.0" encoding="UTF-8" standalone="no"?>
<svg width="35px" height="17px" viewBox="0 0 35 17" version="1.1" xmlns="http://www.w3.org/2000/svg" xmlns:xlink="http://www.w3.org/1999/xlink" xmlns:sketch="http://www.bohemiancoding.com/sketch/ns">
    <!-- Generator: Sketch 3.4.4 (17249) - http://www.bohemiancoding.com/sketch -->
    <title>menu_ps</title>
    <desc>Created with Sketch.</desc>
    <defs></defs>
    <g id="单品详情" stroke="none" stroke-width="1" fill="none" fill-rule="evenodd" sketch:type="MSPage">
        <path d="M15.532,16.804 L9.214,16.804 L9.214,7.804 L13.678,7.804 L13.678,2.368 L8.908,2.368 L8.908,1.18 L15.352,1.18 L15.352,8.938 L10.87,8.938 L10.87,15.598 L16.18,15.598 L15.532,16.804 Z M6.01,2.386 L6.01,4.546 L7.846,4.546 L7.846,16.804 L0.232,16.804 L0.232,4.546 L2.104,4.546 L2.104,2.386 L-0.02,2.386 L-0.02,1.216 L8.206,1.216 L8.206,2.386 L6.01,2.386 Z M4.444,2.386 L3.652,2.386 L3.652,4.546 L4.444,4.546 L4.444,2.386 Z M6.298,5.716 L5.452,5.716 L5.452,9.892 L6.298,9.892 L6.298,5.716 Z M6.28,11.08 L4.444,11.08 L4.444,5.716 L3.652,5.716 L3.652,9.838 L3.076,11.08 L1.87,11.08 L2.626,9.532 L2.626,5.716 L1.798,5.716 L1.798,12.664 L6.28,12.664 L6.28,11.08 Z M6.28,13.834 L1.798,13.834 L1.798,15.616 L6.28,15.616 L6.28,13.834 Z M26.512,3.736 L25.468,6.04 L23.686,6.04 L25.954,1 L27.754,1 L27.052,2.548 L34,2.548 L34,3.736 L26.512,3.736 Z M30.904,15.202 L30.31,14.014 L31.876,14.014 L31.876,8.002 L29.752,8.002 L29.752,16.786 L28.096,16.786 L28.096,8.002 L25.972,8.002 L25.972,15.202 L24.316,15.202 L24.316,6.652 L28.096,6.652 L28.096,4.348 L29.752,4.348 L29.752,6.652 L33.532,6.652 L33.532,15.202 L30.904,15.202 Z M21.814,6.688 L21.814,3.952 L20.248,3.952 L19.348,6.796 L17.62,6.796 L19.456,1 L21.184,1 L20.626,2.782 L23.47,2.782 L23.47,6.688 L21.814,6.688 Z M23.02,16.804 L19.456,16.804 L19.456,7.282 L21.112,7.282 L21.112,15.634 L23.596,15.634 L23.02,16.804 Z" id="配饰---" fill="#3B3B3B" sketch:type="MSShapeGroup"></path>
    </g>
</svg>